<?xml version="1.0" encoding="UTF-8" standalone="no"?>
<svg
   xmlns:dc="http://purl.org/dc/elements/1.1/"
   xmlns:cc="http://creativecommons.org/ns#"
   xmlns:rdf="http://www.w3.org/1999/02/22-rdf-syntax-ns#"
   xmlns:svg="http://www.w3.org/2000/svg"
   xmlns="http://www.w3.org/2000/svg"
   xmlns:sodipodi="http://sodipodi.sourceforge.net/DTD/sodipodi-0.dtd"
   xmlns:inkscape="http://www.inkscape.org/namespaces/inkscape"
   width="192"
   height="192"
   viewBox="0 0 192 192"
   version="1.1"
   id="svg8"
   inkscape:version="1.0.2-2 (e86c870879, 2021-01-15)"
   sodipodi:docname="lamp_on.svg">
  <defs
     id="defs2" />
  <sodipodi:namedview
     id="base"
     pagecolor="#ffffff"
     bordercolor="#666666"
     borderopacity="1.0"
     inkscape:pageopacity="0.0"
     inkscape:pageshadow="2"
     inkscape:zoom="1.979899"
     inkscape:cx="115.29089"
     inkscape:cy="142.02958"
     inkscape:document-units="px"
     inkscape:current-layer="layer1"
     inkscape:document-rotation="0"
     showgrid="false"
     units="px"
     inkscape:snap-page="true"
     inkscape:snap-bbox="true"
     inkscape:bbox-nodes="true"
     inkscape:snap-smooth-nodes="true"
     inkscape:window-width="1920"
     inkscape:window-height="1017"
     inkscape:window-x="-8"
     inkscape:window-y="-8"
     inkscape:window-maximized="1" />
  <metadata
     id="metadata5">
    <rdf:RDF>
      <cc:Work
         rdf:about="">
        <dc:format>image/svg+xml</dc:format>
        <dc:type
           rdf:resource="http://purl.org/dc/dcmitype/StillImage" />
        <dc:title></dc:title>
      </cc:Work>
    </rdf:RDF>
  </metadata>
  <g
     inkscape:label="Layer 1"
     inkscape:groupmode="layer"
     id="layer1">
    <rect
       style="fill:#d40000;fill-rule:evenodd;stroke-width:64;stroke-linecap:round;stroke-linejoin:round;paint-order:markers fill stroke;stop-color:#000000"
       id="rect837"
       width="192"
       height="96"
       x="0"
       y="96" />
    <circle
       style="fill:#d40000;fill-rule:evenodd;stroke-width:64.8773;stroke-linecap:round;stroke-linejoin:round;paint-order:markers fill stroke;stop-color:#000000"
       id="path833"
       cx="96"
       cy="96"
       r="96" />
    <path
       id="path833-1"
       style="fill:#aa0000;fill-rule:evenodd;stroke-width:64.8773;stroke-linecap:round;stroke-linejoin:round;paint-order:markers fill stroke;stop-color:#000000"
       sodipodi:type="inkscape:offset"
       inkscape:radius="-18.801195"
       inkscape:original="M 95.978516 0 A 96 96 0 0 0 0 96 A 96 96 0 0 0 96 192 A 96 96 0 0 0 192 96 A 96 96 0 0 0 96 0 A 96 96 0 0 0 95.978516 0 z "
       d="M 95.980469,18.800781 C 75.773408,18.805839 55.693207,27.127814 41.40625,41.417969 27.118833,55.708584 18.800781,75.792279 18.800781,96 c 0,20.2106 8.320276,40.29684 22.611328,54.58789 C 55.703162,164.87894 75.7894,173.19922 96,173.19922 c 20.2106,0 40.29684,-8.32028 54.58789,-22.61133 C 164.87894,136.29684 173.19922,116.2106 173.19922,96 c 0,-20.2106 -8.32028,-40.296838 -22.61133,-54.587891 C 136.29684,27.121057 116.2106,18.800781 96,18.800781 a 18.803075,18.803075 0 0 1 -0.002,0 c -0.0051,0 -0.01051,0 -0.01563,0 z" />
    <path
       id="path833-9"
       style="fill:#ffcc00;fill-rule:evenodd;stroke-width:64.8773;stroke-linecap:round;stroke-linejoin:round;paint-order:markers fill stroke;stop-color:#000000"
       sodipodi:type="inkscape:offset"
       inkscape:radius="-38.808495"
       inkscape:original="M 95.978516 0 A 96 96 0 0 0 0 96 A 96 96 0 0 0 96 192 A 96 96 0 0 0 192 96 A 96 96 0 0 0 96 0 A 96 96 0 0 0 95.978516 0 z "
       d="M 95.982422,38.808594 C 66.042829,38.817671 38.808593,66.06017 38.808594,96 c 0,29.9454 27.246004,57.19141 57.191406,57.19141 29.9454,0 57.19141,-27.24601 57.19141,-57.19141 C 153.19141,66.054598 125.9454,38.808594 96,38.808594 a 38.812375,38.812375 0 0 1 -0.0039,0 c -0.003,-10e-7 -0.0067,0 -0.0098,0 z" />
  </g>
</svg>
