<?xml version="1.0" encoding="UTF-8" standalone="no"?>
<svg
   xmlns:dc="http://purl.org/dc/elements/1.1/"
   xmlns:cc="http://creativecommons.org/ns#"
   xmlns:rdf="http://www.w3.org/1999/02/22-rdf-syntax-ns#"
   xmlns:svg="http://www.w3.org/2000/svg"
   xmlns="http://www.w3.org/2000/svg"
   xmlns:sodipodi="http://sodipodi.sourceforge.net/DTD/sodipodi-0.dtd"
   xmlns:inkscape="http://www.inkscape.org/namespaces/inkscape"
   width="211.2"
   height="211"
   viewBox="0 0 55.879999 55.827082"
   version="1.1"
   id="svg909"
   inkscape:version="1.0.2-2 (e86c870879, 2021-01-15)"
   sodipodi:docname="plunger casing curve.svg"
   inkscape:export-filename="C:\Users\Zachary M\Documents\Portable Programs\PandemoniumPinball\Assets\Sprites\Plunger Casing Curve.png"
   inkscape:export-xdpi="96"
   inkscape:export-ydpi="96">
  <defs
     id="defs903">
    <inkscape:path-effect
       effect="skeletal"
       id="path-effect1035"
       is_visible="true"
       lpeversion="1"
       pattern="m 43.127083,30.427083 v 25.399999 h 4.233333 V 30.427083 Z m 8.466666,0 v 25.399999 h 4.233333 V 30.427083 Z m -2.116666,1.274858 a 1.0583297,1.0583297 0 0 0 -1.058334,1.058333 1.0583297,1.0583297 0 0 0 1.058334,1.058333 1.0583297,1.0583297 0 0 0 1.058333,-1.058333 1.0583297,1.0583297 0 0 0 -1.058333,-1.058333 z m 0,19.701123 a 1.0583297,1.0583297 0 0 0 -1.058334,1.058333 1.0583297,1.0583297 0 0 0 1.058334,1.058334 1.0583297,1.0583297 0 0 0 1.058333,-1.058334 1.0583297,1.0583297 0 0 0 -1.058333,-1.058333 z"
       copytype="repeated"
       prop_scale="1"
       scale_y_rel="false"
       spacing="0"
       normal_offset="-6.35"
       tang_offset="0"
       prop_units="false"
       vertical_pattern="true"
       hide_knot="false"
       fuse_tolerance="0" />
    <inkscape:path-effect
       effect="skeletal"
       id="path-effect1013"
       is_visible="true"
       lpeversion="1"
       pattern="m 43.127083,30.427083 v 25.399999 h 4.233333 V 30.427083 Z m 8.466666,0 v 25.399999 h 4.233333 V 30.427083 Z m -2.116666,1.274858 a 1.0583297,1.0583297 0 0 0 -1.058334,1.058333 1.0583297,1.0583297 0 0 0 1.058334,1.058333 1.0583297,1.0583297 0 0 0 1.058333,-1.058333 1.0583297,1.0583297 0 0 0 -1.058333,-1.058333 z m 0,19.701123 a 1.0583297,1.0583297 0 0 0 -1.058334,1.058333 1.0583297,1.0583297 0 0 0 1.058334,1.058334 1.0583297,1.0583297 0 0 0 1.058333,-1.058334 1.0583297,1.0583297 0 0 0 -1.058333,-1.058333 z"
       copytype="repeated"
       prop_scale="1"
       scale_y_rel="false"
       spacing="0"
       normal_offset="0"
       tang_offset="0"
       prop_units="false"
       vertical_pattern="true"
       hide_knot="false"
       fuse_tolerance="0.5" />
    <inkscape:path-effect
       effect="skeletal"
       id="path-effect986"
       is_visible="true"
       lpeversion="1"
       pattern="m 43.127083,30.427083 v 25.399999 h 4.233333 V 30.427083 Z m 8.466666,0 v 25.399999 h 4.233333 V 30.427083 Z m -2.116666,1.274858 a 1.0583297,1.0583297 0 0 0 -1.058334,1.058333 1.0583297,1.0583297 0 0 0 1.058334,1.058333 1.0583297,1.0583297 0 0 0 1.058333,-1.058333 1.0583297,1.0583297 0 0 0 -1.058333,-1.058333 z m 0,19.701123 a 1.0583297,1.0583297 0 0 0 -1.058334,1.058333 1.0583297,1.0583297 0 0 0 1.058334,1.058334 1.0583297,1.0583297 0 0 0 1.058333,-1.058334 1.0583297,1.0583297 0 0 0 -1.058333,-1.058333 z"
       copytype="repeated"
       prop_scale="1"
       scale_y_rel="false"
       spacing="0"
       normal_offset="0"
       tang_offset="0"
       prop_units="false"
       vertical_pattern="true"
       hide_knot="false"
       fuse_tolerance="0" />
    <inkscape:path-effect
       effect="skeletal"
       id="path-effect915"
       is_visible="true"
       lpeversion="1"
       pattern="m 163,115 v 96 h 16 v -96 z m 32,0 v 96 h 16 v -96 z m -8,4.81836 a 3.9999863,3.9999863 0 0 0 -4,4 3.9999863,3.9999863 0 0 0 4,4 3.9999863,3.9999863 0 0 0 4,-4 3.9999863,3.9999863 0 0 0 -4,-4 z m 0,74.46094 a 3.9999863,3.9999863 0 0 0 -4,4 3.9999863,3.9999863 0 0 0 4,4 3.9999863,3.9999863 0 0 0 4,-4 3.9999863,3.9999863 0 0 0 -4,-4 z"
       copytype="repeated"
       prop_scale="0.14"
       scale_y_rel="false"
       spacing="0"
       normal_offset="0"
       tang_offset="0"
       prop_units="false"
       vertical_pattern="false"
       hide_knot="false"
       fuse_tolerance="0" />
  </defs>
  <sodipodi:namedview
     id="base"
     pagecolor="#ffffff"
     bordercolor="#666666"
     borderopacity="1.0"
     inkscape:pageopacity="0.0"
     inkscape:pageshadow="2"
     inkscape:zoom="1"
     inkscape:cx="193.27875"
     inkscape:cy="188.179"
     inkscape:document-units="px"
     inkscape:current-layer="layer1"
     inkscape:document-rotation="0"
     showgrid="false"
     inkscape:snap-page="true"
     inkscape:object-paths="true"
     inkscape:snap-object-midpoints="true"
     inkscape:snap-midpoints="false"
     inkscape:snap-intersection-paths="true"
     inkscape:snap-smooth-nodes="true"
     inkscape:window-width="1920"
     inkscape:window-height="1017"
     inkscape:window-x="-8"
     inkscape:window-y="-8"
     inkscape:window-maximized="1"
     units="px"
     inkscape:snap-bbox="true"
     inkscape:bbox-paths="false"
     inkscape:snap-bbox-edge-midpoints="false"
     inkscape:snap-bbox-midpoints="false"
     inkscape:bbox-nodes="true"
     inkscape:snap-nodes="true"
     inkscape:snap-others="false"
     inkscape:object-nodes="true" />
  <metadata
     id="metadata906">
    <rdf:RDF>
      <cc:Work
         rdf:about="">
        <dc:format>image/svg+xml</dc:format>
        <dc:type
           rdf:resource="http://purl.org/dc/dcmitype/StillImage" />
        <dc:title></dc:title>
      </cc:Work>
    </rdf:RDF>
  </metadata>
  <g
     inkscape:label="Layer 1"
     inkscape:groupmode="layer"
     id="layer1">
    <path
       style="font-variation-settings:normal;opacity:1;vector-effect:none;fill:#ffffff;fill-opacity:1;stroke:none;stroke-width:1.32292;stroke-linecap:round;stroke-linejoin:miter;stroke-miterlimit:4;stroke-dasharray:none;stroke-dashoffset:0;stroke-opacity:1;stop-color:#000000;stop-opacity:1"
       d="m 0,2.245064 v 8.325446 l 12.534941,1.964431 7.109369,2.80633 6.92228,4.864305 6.267471,5.519116 8.606303,13.036766 2.530078,7.970573 1.422136,9.095052 h 8.946223 L 52.486718,46.50052 49.543229,37.405468 42.697135,24.573177 35.685677,16.701823 29.302604,11.443229 18.620052,5.7216145 8.5125342,3.1805073 Z"
       id="path1062" />
    <path
       style="fill:#b3b3b3;fill-opacity:1;fill-rule:evenodd;stroke:none;stroke-width:16.929;stroke-linecap:round;stroke-miterlimit:4;stroke-dasharray:none;paint-order:markers fill stroke;stop-color:#000000"
       d="m 186.1582,196.11133 c -2.18284,0.19653 -3.75157,2.39459 -3.57617,4.86719 0.17533,2.47209 2.04588,4.47154 4.24805,4.39648 2.20228,-0.0751 3.89072,-2.2457 3.69531,-4.89062 -0.19536,-2.64444 -2.18446,-4.56961 -4.36719,-4.37305 z"
       transform="scale(0.26458333)"
       id="path1060" />
    <path
       style="fill:#b3b3b3;fill-opacity:1;fill-rule:evenodd;stroke:none;stroke-width:16.929;stroke-linecap:round;stroke-miterlimit:4;stroke-dasharray:none;paint-order:markers fill stroke;stop-color:#000000"
       d="m 160.44141,116.06055 c -0.52505,0.0539 -1.03621,0.22173 -1.50196,0.51172 -1.86307,1.15998 -2.31452,3.80242 -1.08593,5.89453 1.22844,2.0919 3.75076,2.9769 5.6621,1.90625 1.91144,-1.07069 2.4749,-3.73008 1.17579,-5.94727 -0.97424,-1.66274 -2.67487,-2.52683 -4.25,-2.36523 z"
       transform="scale(0.26458333)"
       id="path1058" />
    <path
       style="fill:#b3b3b3;fill-opacity:1;fill-rule:evenodd;stroke:none;stroke-width:16.929;stroke-linecap:round;stroke-miterlimit:4;stroke-dasharray:none;paint-order:markers fill stroke;stop-color:#000000"
       d="m 147.12109,95.925781 c -0.80288,0.01254 -1.5804,0.269101 -2.22265,0.78711 -1.71272,1.381372 -1.84211,4.059629 -0.36524,5.984379 1.47676,1.92465 4.09238,2.48918 5.86328,1.1875 1.77096,-1.30171 2.00777,-4.010402 0.44727,-6.046879 -0.97526,-1.27274 -2.38452,-1.93301 -3.72266,-1.91211 z"
       transform="scale(0.26458333)"
       id="path1056" />
    <path
       style="fill:#b3b3b3;fill-opacity:1;fill-rule:evenodd;stroke:none;stroke-width:16.929;stroke-linecap:round;stroke-miterlimit:4;stroke-dasharray:none;paint-order:markers fill stroke;stop-color:#000000"
       d="m 83.412109,42.023438 c -1.413662,0.06871 -2.676486,0.783882 -3.298828,2.001953 -0.995709,1.948849 -0.01261,4.433746 2.125,5.582031 2.137678,1.148428 4.76171,0.600749 5.84961,-1.302734 1.087861,-1.903382 0.19239,-4.461004 -2.074219,-5.675782 -0.850074,-0.455598 -1.753365,-0.646693 -2.601563,-0.605468 z"
       transform="scale(0.26458333)"
       id="path1054" />
    <path
       style="fill:#ff0000;fill-opacity:1;fill-rule:evenodd;stroke:none;stroke-width:16.929;stroke-linecap:round;stroke-miterlimit:4;stroke-dasharray:none;paint-order:markers fill stroke;stop-color:#000000"
       d="M 0,32 V 48 C 21.346602,48 42.212556,52.857443 61.501953,61.478516 90.418061,74.402089 115.79186,95.782268 133.9375,121.93164 152.08314,148.08101 163,179 163,211 h 16 C 178.63951,175.36113 166.74706,141.41842 147.01172,112.85938 127.27637,84.300327 99.697898,61.125536 67.962891,47.021484 46.793061,37.612934 23.774026,32.240491 0,32 Z"
       transform="scale(0.26458333)"
       id="path1052" />
    <path
       style="fill:#b3b3b3;fill-opacity:1;fill-rule:evenodd;stroke:none;stroke-width:16.929;stroke-linecap:round;stroke-miterlimit:4;stroke-dasharray:none;paint-order:markers fill stroke;stop-color:#000000"
       d="m 61.564453,31.945312 c -1.765638,-0.01352 -3.328324,0.9286 -3.876953,2.470704 -0.731478,2.056252 0.574589,4.390902 2.845703,5.257812 2.271466,0.867062 4.803787,-0.0031 5.636719,-2.023437 0.832902,-2.020007 -0.388716,-4.439703 -2.802734,-5.359375 -0.60359,-0.229956 -1.214189,-0.341198 -1.802735,-0.345704 z"
       transform="scale(0.26458333)"
       id="path1050" />
    <path
       style="fill:#b3b3b3;fill-opacity:1;fill-rule:evenodd;stroke:none;stroke-width:16.929;stroke-linecap:round;stroke-miterlimit:4;stroke-dasharray:none;paint-order:markers fill stroke;stop-color:#000000"
       d="m 0,0 v 16 c 26.201449,0.480945 51.375516,6.366468 74.425781,16.5625 34.553909,15.284514 64.337059,40.255886 85.662109,71.22461 C 181.41293,134.75583 194.27899,171.72226 195,211 h 16 C 209.91848,168.08339 196.07686,128.09129 173.16211,94.712891 150.24736,61.334491 118.25952,34.570452 80.886719,18.105469 55.956021,7.1219347 28.628872,0.72147402 0,0 Z"
       transform="scale(0.26458333)"
       id="path999" />
  </g>
</svg>
